<svg width="120" height="120" viewBox="0 0 120 120" fill="none" xmlns="http://www.w3.org/2000/svg">
<path d="M91.875 0H28.125C12.592 0 0 12.592 0 28.125V91.875C0 107.408 12.592 120 28.125 120H91.875C107.408 120 120 107.408 120 91.875V28.125C120 12.592 107.408 0 91.875 0Z" fill="#F03C2E"/>
<mask id="mask0_15_146" style="mask-type:luminance" maskUnits="userSpaceOnUse" x="13" y="13" width="94" height="94">
<path d="M13.125 13.125H106.875V106.875H13.125V13.125Z" fill="white"/>
</mask>
<g mask="url(#mask0_15_146)">
<path d="M105.105 55.8253L64.1747 14.8945C63.3308 14.0496 62.2551 13.4742 61.084 13.2411C59.9128 13.0081 58.6988 13.1278 57.5958 13.5853C56.8634 13.8888 56.1981 14.3337 55.6378 14.8945L47.1417 23.3906L57.9229 34.1719C60.4308 33.2929 63.3018 33.8934 65.2997 35.8917C66.2507 36.8445 66.9146 38.0456 67.2156 39.3578C67.5166 40.67 67.4424 42.0404 67.0017 43.3125L77.3934 53.7042C79.9073 52.837 82.8075 53.3962 84.8142 55.409C85.8194 56.4138 86.5039 57.6943 86.781 59.0883C87.0581 60.4823 86.9154 61.9271 86.3709 63.24C85.641 65.0001 84.2419 66.3984 82.4814 67.1273C80.7208 67.8563 78.7429 67.8563 76.9823 67.1273C76.1104 66.7659 75.3183 66.2367 74.6512 65.5692C72.5418 63.4598 72.0206 60.3544 73.087 57.7556L63.3956 48.0642V73.5675C64.0991 73.9155 64.742 74.3745 65.2997 74.9268C66.647 76.2742 67.4039 78.1015 67.4039 80.0069C67.4039 81.9123 66.647 83.7397 65.2997 85.087C63.9523 86.4343 62.125 87.1912 60.2196 87.1912C58.3142 87.1912 56.4868 86.4343 55.1395 85.087C54.1339 84.0827 53.4489 82.8025 53.1714 81.4087C52.8939 80.0148 53.0362 78.5699 53.5804 77.257C53.9417 76.3853 54.4716 75.5934 55.1395 74.9268C55.8337 74.2354 56.6044 73.7109 57.4922 73.3594V47.6189C56.6113 47.2587 55.8113 46.7259 55.1395 46.0519C54.1308 45.0442 53.445 43.759 53.1695 42.3601C52.894 40.9612 53.0413 39.5119 53.5926 38.197L42.9581 27.5686L14.8917 55.6054C14.0468 56.4498 13.4713 57.5258 13.2381 58.6973C13.0049 59.8688 13.1244 61.0831 13.5815 62.1867C13.8853 62.9194 14.3305 63.585 14.8917 64.1456L55.8253 105.073C56.3857 105.634 57.051 106.079 57.7833 106.382C59.2627 106.995 60.9247 106.995 62.4042 106.382C63.1364 106.079 63.8018 105.634 64.3622 105.073L105.105 64.3945C105.666 63.8339 106.111 63.1683 106.415 62.4356C106.719 61.703 106.875 60.9177 106.875 60.1247C106.875 59.3315 106.719 58.5461 106.415 57.8133C106.112 57.0806 105.667 56.4149 105.105 55.8544" fill="white"/>
</g>
</svg>
