<svg width="120" height="120" viewBox="0 0 120 120" fill="none" xmlns="http://www.w3.org/2000/svg">
<path d="M91.875 0H28.125C12.592 0 0 12.592 0 28.125V91.875C0 107.408 12.592 120 28.125 120H91.875C107.408 120 120 107.408 120 91.875V28.125C120 12.592 107.408 0 91.875 0Z" fill="#0073AA"/>
<path d="M19.7879 59.9972C19.7879 75.9136 29.0377 89.6686 42.4505 96.1871L23.2693 43.6327C20.9699 48.7817 19.7836 54.3581 19.7879 59.9972ZM87.1444 57.968C87.1444 52.9988 85.3594 49.5572 83.8285 46.8783C81.7899 43.5661 79.8793 40.7611 79.8793 37.4489C79.8793 33.7524 82.6829 30.3117 86.6316 30.3117C86.8102 30.3117 86.979 30.3338 87.1529 30.3436C79.9988 23.7896 70.4677 19.7878 59.9986 19.7878C45.9511 19.7878 33.5916 26.9953 26.4019 37.9125C27.345 37.9407 28.2343 37.9608 28.9894 37.9608C33.1955 37.9608 39.706 37.4499 39.706 37.4499C41.8735 37.3224 42.1294 40.5061 39.9638 40.7625C39.9638 40.7625 37.7855 41.0189 35.3616 41.146L50.0044 84.7013L58.8043 58.3092L52.5394 41.1446C50.3743 41.0175 48.323 40.7611 48.323 40.7611C46.156 40.6341 46.41 37.321 48.5771 37.4489C48.5771 37.4489 55.2174 37.9589 59.1685 37.9589C63.3741 37.9589 69.885 37.4489 69.885 37.4489C72.0544 37.321 72.309 40.5047 70.1429 40.7611C70.1429 40.7611 67.9599 41.0175 65.5407 41.1446L80.0724 84.3699L84.083 70.9674C85.8216 65.4052 87.1444 61.4105 87.1444 57.968Z" fill="white"/>
<path d="M60.7046 63.5147L48.6399 98.5725C52.3285 99.6589 56.1538 100.211 59.9991 100.211C64.547 100.212 69.0621 99.4416 73.3519 97.9313C73.2403 97.7554 73.1446 97.57 73.066 97.3772L60.7046 63.5147ZM95.2824 40.7053C95.4653 42.0758 95.5558 43.4571 95.5533 44.8397C95.5533 48.9202 94.7911 53.5074 92.4957 59.243L80.213 94.755C92.1676 87.7838 100.208 74.8327 100.208 59.9981C100.209 53.0067 98.4235 46.4325 95.2824 40.7053Z" fill="white"/>
<path d="M59.9991 13.125C34.1531 13.125 13.125 34.1517 13.125 59.9972C13.125 85.8459 34.1531 106.872 59.9991 106.872C85.8436 106.872 106.875 85.8459 106.875 59.9972C106.874 34.1517 85.8436 13.125 59.9991 13.125ZM59.9991 104.723C35.3381 104.723 15.2742 84.6591 15.2742 59.9972C15.2742 35.3367 35.3377 15.2742 59.9991 15.2742C84.6586 15.2742 104.721 35.3367 104.721 59.9972C104.721 84.6591 84.6586 104.723 59.9991 104.723Z" fill="white"/>
</svg>
