<svg width="120" height="120" viewBox="0 0 120 120" fill="none" xmlns="http://www.w3.org/2000/svg">
<g clip-path="url(#clip0_15_66)">
<path d="M91.875 0H28.125C12.592 0 0 12.592 0 28.125V91.875C0 107.408 12.592 120 28.125 120H91.875C107.408 120 120 107.408 120 91.875V28.125C120 12.592 107.408 0 91.875 0Z" fill="#0277BD"/>
<path d="M25.1967 48.1177L26.5383 63.0905H60.045V48.1177H25.1967ZM60.0445 17.8125H22.5L23.8612 32.7853H60.0445V17.8125ZM60.0445 102.582V87.0038L59.9789 87.0211L43.3036 82.5187L42.2377 70.5769H27.2072L29.3048 94.0866L59.9756 102.601L60.0445 102.582Z" fill="#EBEBEB"/>
<path d="M78.4303 63.0905L76.6921 82.5089L59.9929 87.0164V102.593L90.6881 94.0866L90.9131 91.5567L94.4315 52.1386L94.7967 48.1177L97.5 17.8125H59.9929V32.7853H81.0909L79.7287 48.1177H59.9929V63.0905H78.4303Z" fill="white"/>
</g>
<defs>
<clipPath id="clip0_15_66">
<rect width="120" height="120" fill="white"/>
</clipPath>
</defs>
</svg>
