<svg width="161" height="120" viewBox="0 0 161 120" fill="none" xmlns="http://www.w3.org/2000/svg">
<g clip-path="url(#clip0_312_23)">
<path fill-rule="evenodd" clip-rule="evenodd" d="M0.189941 0H160.19V120H0.189941V0Z" fill="#229E45"/>
<path fill-rule="evenodd" clip-rule="evenodd" d="M80.5398 109L155.915 60.075L80.0898 11L4.46484 60.175L80.5398 109Z" fill="#F8E509"/>
<path fill-rule="evenodd" clip-rule="evenodd" d="M113.39 60C113.39 77.575 99.1149 91.825 81.4899 91.825C75.1917 91.8151 69.0377 89.9381 63.8061 86.4312C58.5744 82.9244 54.4999 77.9452 52.0977 72.1231C49.6954 66.3009 49.0733 59.8972 50.3099 53.7216C51.5465 47.5459 54.5863 41.8755 59.0451 37.4272C63.5039 32.9789 69.1815 29.9524 75.36 28.7303C81.5386 27.5083 87.9408 28.1455 93.7573 30.5614C99.5737 32.9774 104.543 37.0636 108.038 42.3035C111.532 47.5434 113.395 53.7017 113.39 60Z" fill="#2B49A3"/>
<path fill-rule="evenodd" clip-rule="evenodd" d="M71.015 79.075L70.015 78.5L69.015 79L69.24 77.875L68.44 77.025L69.565 76.9L70.115 75.9L70.59 76.95L71.69 77.15L70.865 77.9M92.365 84.475L91.39 83.9L90.39 84.4L90.59 83.275L89.815 82.45L90.94 82.325L91.465 81.3L91.965 82.35L93.065 82.55L92.215 83.325M83.165 75.825L82.315 75.325L81.44 75.775L81.64 74.8L80.94 74.075L81.94 73.975L82.39 73.075L82.79 74L83.765 74.175L83.015 74.85M104.765 72.725L103.915 72.225L103.04 72.675L103.24 71.7L102.565 71L103.54 70.9L103.99 70.025L104.39 70.925L105.34 71.1L104.615 71.75M82.79 66.25L81.79 65.7L80.79 66.2L80.99 65.05L80.215 64.225L81.34 64.1L81.865 63.075L82.365 64.125L83.465 64.325L82.615 65.125M56.465 56.375L55.465 55.825L54.465 56.325L54.715 55.175L53.89 54.35L55.04 54.225L55.54 53.2L56.04 54.25L57.14 54.45L56.315 55.225M59.64 69.525L58.64 68.95L57.64 69.45L57.865 68.325L57.065 67.5L58.19 67.35L58.715 66.35L59.215 67.4L60.315 67.6L59.49 68.375M92.49 51.55L91.59 51.05L90.69 51.5L90.89 50.5L90.19 49.75L91.19 49.625L91.665 48.725L92.09 49.675L93.09 49.85L92.34 50.525M90.665 60.1L89.99 59.7L89.265 60.05L89.415 59.25L88.865 58.675L89.665 58.575L90.04 57.875L90.365 58.625L91.115 58.75L90.565 59.3M55.015 71.9L54.34 71.525L53.665 71.85L53.815 71.1L53.29 70.55L54.04 70.45L54.39 69.775L54.715 70.475L55.465 70.625L54.89 71.125M104.94 74.95L104.39 74.675L103.84 74.925L103.965 74.35L103.54 73.95L104.14 73.875L104.44 73.375L104.69 73.875L105.315 74L104.84 74.375" fill="#FFFFEF"/>
<path fill-rule="evenodd" clip-rule="evenodd" d="M55.015 71.9L54.34 71.525L53.665 71.85L53.815 71.1L53.29 70.55L54.04 70.45L54.39 69.775L54.715 70.475L55.465 70.625L54.89 71.125" fill="#FFFFEF"/>
<path fill-rule="evenodd" clip-rule="evenodd" d="M55.015 71.9L54.34 71.525L53.665 71.85L53.815 71.1L53.29 70.55L54.04 70.45L54.39 69.775L54.715 70.475L55.465 70.625L54.89 71.125M65.465 71.875L64.815 71.525L64.14 71.85L64.29 71.1L63.765 70.55L64.515 70.45L64.865 69.775L65.19 70.475L65.94 70.6L65.365 71.125M64.165 75.375L63.515 75L62.84 75.35L62.99 74.6L62.465 74.025L63.215 73.925L63.565 73.25L63.89 73.95L64.64 74.1L64.065 74.6M85.915 69.05L85.265 68.65L84.565 69L84.715 68.25L84.215 67.675L84.965 67.6L85.315 66.925L85.615 67.625L86.365 67.75L85.815 68.275M79.54 69.025L78.865 68.65L78.19 69L78.34 68.25L77.84 67.675L78.59 67.6L78.94 66.9L79.24 67.625L79.99 67.75L79.44 68.275M62.24 66.825L61.815 66.575L61.39 66.775L61.49 66.3L61.165 65.95L61.64 65.9L61.84 65.475L62.04 65.925L62.515 66L62.165 66.325M104.115 77.675L103.465 77.3L102.79 77.65L102.94 76.9L102.415 76.325L103.165 76.225L103.515 75.55L103.84 76.25L104.59 76.4L104.015 76.9M98.815 78.4L98.265 78.05L97.69 78.35L97.815 77.7L97.39 77.25L98.015 77.175L98.315 76.6L98.565 77.2L99.19 77.3L98.715 77.75M101.315 78.325L100.815 78.025L100.29 78.275L100.39 77.7L99.99 77.275L100.565 77.2L100.84 76.7L101.09 77.2L101.665 77.325L101.24 77.725M108.515 72.025L108.015 71.775L107.515 72.025L107.64 71.45L107.24 71.025L107.815 70.95L108.065 70.45L108.315 70.975L108.84 71.075L108.44 71.475M98.74 81.925L98.115 81.575L97.44 81.875L97.59 81.175L97.09 80.675L97.84 80.6L98.165 79.975L98.465 80.625L99.215 80.75L98.64 81.225M98.79 84.775L98.19 84.425L97.59 84.75L97.74 84.05L97.265 83.55L97.94 83.45L98.24 82.825L98.515 83.475L99.19 83.6L98.69 84.1M93.94 78.325L93.465 78.025L92.965 78.275L93.065 77.725L92.69 77.3L93.24 77.25L93.49 76.75L93.74 77.25L94.29 77.35L93.89 77.75M89.44 78.325L88.94 78.025L88.44 78.275L88.565 77.725L88.165 77.3L88.74 77.25L88.99 76.75L89.24 77.25L89.765 77.35L89.365 77.75M81.765 71.6L81.265 71.325L80.765 71.575L80.89 71L80.49 70.6L81.04 70.525L81.29 70.025L81.54 70.525L82.09 70.65L81.69 71.025M82.615 85.275L82.215 85.05L81.765 85.275L81.865 84.775L81.54 84.425L82.015 84.375L82.24 83.95L82.44 84.4L82.915 84.475L82.565 84.8M71.015 63.15L70.015 62.575L69.015 63.075L69.24 61.95L68.44 61.125L69.565 60.975L70.115 59.975L70.59 61.025L71.69 61.225L70.865 62" fill="#FFFFEF"/>
<path fill-rule="evenodd" clip-rule="evenodd" d="M111.29 71.45C111.909 69.8429 112.394 68.1872 112.74 66.5C95.7899 51.625 76.9149 44 53.0649 45.575C52.1999 47.2487 51.4887 48.9976 50.9399 50.8C79.1899 48.1 99.9399 60.6 111.29 71.45Z" fill="white"/>
<path d="M103.69 63.1L104.265 63.425C104.179 63.5948 104.153 63.7884 104.19 63.975C104.249 64.1559 104.374 64.3078 104.54 64.4C104.715 64.525 104.89 64.6 105.04 64.575C105.19 64.575 105.29 64.5 105.365 64.4C105.409 64.3336 105.426 64.2536 105.415 64.175C105.395 64.0827 105.352 63.9968 105.29 63.925C105.24 63.85 105.115 63.675 104.915 63.475C104.709 63.2628 104.555 63.0062 104.465 62.725C104.403 62.5122 104.419 62.284 104.511 62.0821C104.602 61.8802 104.764 61.718 104.965 61.625C105.147 61.5491 105.348 61.5316 105.54 61.575C105.775 61.6291 105.996 61.7313 106.19 61.875C106.54 62.125 106.765 62.375 106.84 62.675C106.875 62.8153 106.879 62.9614 106.853 63.1035C106.827 63.2457 106.772 63.3808 106.69 63.5L106.09 63.125C106.165 62.975 106.19 62.825 106.14 62.7C106.115 62.575 106.015 62.45 105.84 62.35C105.712 62.2467 105.554 62.1856 105.39 62.175C105.345 62.1735 105.3 62.1843 105.26 62.2063C105.221 62.2283 105.188 62.2607 105.165 62.3C105.115 62.375 105.115 62.45 105.14 62.55C105.165 62.65 105.29 62.85 105.54 63.1C105.79 63.35 105.94 63.575 106.04 63.725C106.129 63.8888 106.17 64.0749 106.156 64.261C106.143 64.4471 106.077 64.6255 105.965 64.775C105.848 64.945 105.682 65.0757 105.49 65.15C105.303 65.2363 105.093 65.2625 104.89 65.225C104.665 65.175 104.44 65.075 104.19 64.9C103.815 64.65 103.59 64.375 103.515 64.075C103.434 63.7348 103.487 63.3763 103.665 63.075L103.69 63.1ZM100.79 61.2L101.415 61.525C101.338 61.6977 101.32 61.8912 101.365 62.075C101.429 62.2466 101.553 62.3889 101.715 62.475C101.915 62.6 102.065 62.65 102.215 62.625C102.365 62.625 102.465 62.55 102.54 62.425C102.578 62.3655 102.595 62.2953 102.59 62.225C102.59 62.15 102.54 62.05 102.465 61.975C102.337 61.8204 102.204 61.6703 102.065 61.525C101.79 61.25 101.615 61.025 101.565 60.825C101.524 60.6963 101.512 60.5603 101.529 60.4264C101.546 60.2925 101.593 60.1641 101.665 60.05C101.76 59.8957 101.899 59.7737 102.065 59.7C102.237 59.6208 102.428 59.5947 102.615 59.625C102.846 59.6639 103.067 59.749 103.265 59.875C103.64 60.125 103.865 60.375 103.94 60.65C103.986 60.7905 104 60.9392 103.983 61.0859C103.966 61.2326 103.917 61.3739 103.84 61.5L103.215 61.15C103.29 60.975 103.315 60.85 103.265 60.725C103.215 60.6 103.115 60.475 102.94 60.375C102.802 60.2757 102.635 60.2232 102.465 60.225C102.424 60.2278 102.384 60.2406 102.349 60.2624C102.314 60.2842 102.285 60.3143 102.265 60.35C102.215 60.425 102.215 60.5 102.24 60.6C102.265 60.7 102.415 60.9 102.665 61.15C102.915 61.4 103.09 61.6 103.165 61.75C103.265 61.9068 103.318 62.0889 103.318 62.275C103.318 62.4611 103.265 62.6432 103.165 62.8C103.057 62.9744 102.901 63.1135 102.715 63.2C102.528 63.2863 102.318 63.3125 102.115 63.275C101.858 63.2315 101.611 63.1381 101.39 63C101.067 62.8277 100.818 62.5432 100.69 62.2C100.593 61.8662 100.629 61.508 100.79 61.2ZM97.24 60.25L99.065 57.25L101.265 58.625L100.965 59.125L99.365 58.125L98.965 58.8L100.465 59.725L100.14 60.225L98.64 59.3L98.14 60.125L99.815 61.125L99.515 61.625L97.265 60.25H97.24ZM92.065 56L92.34 55.5L93.69 56.175L93.065 57.425C92.865 57.475 92.615 57.5 92.315 57.475C92.0269 57.4432 91.7472 57.3585 91.49 57.225C91.1875 57.0776 90.9289 56.8535 90.74 56.575C90.5681 56.3163 90.4807 56.0105 90.49 55.7C90.5027 55.3768 90.5881 55.0606 90.74 54.775C90.8902 54.4744 91.1137 54.2164 91.39 54.025C91.6542 53.8423 91.9687 53.7462 92.29 53.75C92.54 53.75 92.79 53.825 93.09 54C93.49 54.175 93.74 54.425 93.865 54.7C93.995 54.973 94.0216 55.2839 93.94 55.575L93.265 55.375C93.3063 55.2075 93.2887 55.031 93.215 54.875C93.14 54.725 93.015 54.625 92.815 54.525C92.6984 54.4585 92.5691 54.4174 92.4355 54.4045C92.3019 54.3915 92.1671 54.4071 92.04 54.45C91.79 54.525 91.565 54.75 91.39 55.1C91.215 55.45 91.14 55.775 91.215 56.05C91.2495 56.1804 91.3122 56.3017 91.3986 56.4054C91.4849 56.509 91.5929 56.5925 91.715 56.65C91.84 56.725 91.99 56.775 92.14 56.775C92.2891 56.7976 92.4408 56.7976 92.59 56.775L92.79 56.375L92.065 56ZM69.515 50.425L70.015 46.925L71.065 47.1L71.34 49.55L72.315 47.3L73.365 47.45L72.865 50.9L72.19 50.8L72.615 48.075L71.515 50.7L70.84 50.6L70.565 47.775L70.165 50.525L69.515 50.425ZM65.99 50L66.315 46.5L68.89 46.75L68.84 47.35L66.965 47.175L66.89 47.925L68.64 48.1L68.565 48.7L66.815 48.525L66.74 49.475L68.69 49.65L68.64 50.25L65.99 50Z" fill="#309E3A"/>
<path d="M54.315 47.825C54.315 47.45 54.39 47.175 54.49 46.925C54.5777 46.7472 54.6962 46.5864 54.84 46.45C54.9683 46.3207 55.1213 46.2186 55.29 46.15C55.54 46.075 55.79 46.025 56.04 46.025C56.565 46.025 56.965 46.225 57.29 46.525C57.4447 46.7161 57.5598 46.9362 57.6285 47.1723C57.6971 47.4083 57.7181 47.6558 57.69 47.9C57.69 48.45 57.515 48.9 57.19 49.225C57.023 49.3794 56.8255 49.497 56.6101 49.5702C56.3948 49.6434 56.1665 49.6706 55.94 49.65C55.7166 49.6523 55.495 49.6091 55.2887 49.5232C55.0824 49.4372 54.8958 49.3103 54.74 49.15C54.4289 48.7818 54.2762 48.3055 54.315 47.825Z" fill="#309E3A"/>
<path d="M55.04 47.825C55.04 48.2 55.115 48.5 55.29 48.725C55.465 48.925 55.69 49.05 55.99 49.05C56.1198 49.0591 56.25 49.0391 56.3711 48.9916C56.4922 48.944 56.6011 48.87 56.69 48.775C56.865 48.575 56.94 48.275 56.965 47.85C56.965 47.45 56.915 47.15 56.715 46.95C56.6336 46.8493 56.5308 46.7678 56.4141 46.7116C56.2974 46.6554 56.1696 46.6259 56.04 46.625C55.9085 46.6208 55.7777 46.6455 55.6567 46.6973C55.5358 46.7492 55.4277 46.8269 55.34 46.925C55.14 47.125 55.065 47.425 55.04 47.825Z" fill="#F7FFFF"/>
<path d="M58.4399 49.625L58.4899 46.125H59.9899C60.3649 46.125 60.6149 46.175 60.7899 46.25C60.9649 46.3 61.0899 46.425 61.1899 46.575C61.2899 46.725 61.3399 46.925 61.3399 47.15C61.3419 47.3905 61.2526 47.6228 61.0899 47.8C60.9051 47.9731 60.6673 48.0788 60.4149 48.1L60.7899 48.4C60.8899 48.5 61.0149 48.7 61.1649 48.975L61.5899 49.675H60.7399L60.2399 48.875L59.8899 48.375C59.8293 48.3062 59.7518 48.2545 59.6649 48.225C59.5512 48.1918 59.4334 48.175 59.3149 48.175H59.1649V49.625H58.4399Z" fill="#309E3A"/>
<path d="M59.1899 47.625H59.6899C60.0399 47.625 60.2649 47.625 60.3399 47.575C60.4149 47.575 60.4899 47.5 60.5399 47.45C60.5899 47.4 60.6149 47.275 60.6149 47.2C60.6149 47.05 60.5899 46.95 60.5149 46.9C60.4649 46.825 60.3649 46.775 60.2649 46.75H59.7649L59.1899 46.725V47.6V47.625Z" fill="white"/>
<path d="M62.4399 46.3L63.7399 46.375C64.0149 46.375 64.2399 46.4 64.3899 46.45C64.5845 46.5206 64.757 46.6413 64.8899 46.8C65.0339 46.9748 65.1365 47.1799 65.1899 47.4C65.2649 47.625 65.2899 47.9 65.2649 48.225C65.2647 48.4802 65.2224 48.7335 65.1399 48.975C65.0399 49.225 64.8899 49.425 64.7149 49.575C64.5692 49.695 64.3983 49.7805 64.2149 49.825C64.0649 49.875 63.8399 49.875 63.5899 49.875L62.2649 49.8L62.4399 46.3Z" fill="#309E3A"/>
<path d="M63.115 46.925L62.99 49.25H63.94C64.065 49.25 64.165 49.2 64.24 49.125C64.315 49.05 64.39 48.95 64.44 48.8C64.49 48.65 64.54 48.425 64.54 48.15L64.515 47.525C64.4793 47.3932 64.4104 47.2727 64.315 47.175C64.232 47.0915 64.1285 47.0312 64.015 47C63.8259 46.9579 63.6335 46.9328 63.44 46.925H63.115Z" fill="white"/>
<path d="M79.5898 52.55L80.4148 49.15L81.5148 49.4L82.3148 49.65C82.4898 49.75 82.6398 49.9 82.7148 50.125C82.8148 50.325 82.8148 50.55 82.7648 50.825C82.7148 51.025 82.6398 51.2 82.5148 51.325C82.4232 51.4348 82.3084 51.5231 82.1788 51.5836C82.0492 51.644 81.9079 51.6753 81.7648 51.675C81.5898 51.675 81.3398 51.625 81.0148 51.55L80.5898 51.425L80.2898 52.725L79.5898 52.55Z" fill="#309E3A"/>
<path d="M80.9397 49.9L80.7397 50.85L81.1147 50.95C81.3647 51 81.5647 51.05 81.6647 51.025C81.762 51.0115 81.8527 50.9682 81.9243 50.9011C81.9959 50.8339 82.045 50.7462 82.0647 50.65C82.0647 50.525 82.0647 50.425 82.0147 50.325C81.9599 50.2234 81.8716 50.1439 81.7647 50.1L81.2897 49.975L80.9647 49.9H80.9397Z" fill="white"/>
<path d="M82.8398 53.525L84.0148 50.225L85.3898 50.725C85.7648 50.85 85.9898 50.975 86.1398 51.075C86.2648 51.2 86.3648 51.325 86.3898 51.525C86.4148 51.725 86.4398 51.9 86.3898 52.1C86.2898 52.35 86.1398 52.525 85.9398 52.65C85.7398 52.75 85.4898 52.775 85.1898 52.725C85.2898 52.85 85.3898 52.975 85.4398 53.125L85.6398 53.8L85.7898 54.575L85.0148 54.3L84.7648 53.4C84.7194 53.1964 84.661 52.996 84.5898 52.8C84.5567 52.7222 84.5052 52.6536 84.4398 52.6C84.3898 52.525 84.2898 52.475 84.1148 52.425L83.9898 52.375L83.4898 53.775L82.8398 53.525Z" fill="#309E3A"/>
<path d="M84.1898 51.85L84.6648 52.025C84.9898 52.15 85.1898 52.2 85.2898 52.2C85.3648 52.2 85.4398 52.2 85.5148 52.125C85.5898 52.075 85.6398 52 85.6648 51.9C85.7148 51.8 85.7148 51.7 85.6648 51.6C85.6278 51.5031 85.5567 51.423 85.4648 51.375L84.9648 51.2L84.4648 51.025L84.1648 51.85H84.1898Z" fill="white"/>
<path d="M86.9401 53.4C87.026 53.1073 87.1706 52.8351 87.3651 52.6C87.4915 52.4491 87.6439 52.3221 87.8151 52.225C87.97 52.1375 88.1393 52.0782 88.3151 52.05C88.5651 52.05 88.8151 52.05 89.0901 52.15C89.3135 52.2053 89.5227 52.3074 89.7037 52.4497C89.8847 52.5919 90.0335 52.7709 90.1401 52.975C90.3401 53.375 90.3401 53.85 90.1901 54.4C90.0663 54.8725 89.7608 55.2769 89.3401 55.525C88.9651 55.75 88.5151 55.775 88.0401 55.625C87.8172 55.5682 87.6087 55.4655 87.4279 55.3235C87.2471 55.1814 87.0979 55.0031 86.9901 54.8C86.8899 54.5814 86.834 54.3452 86.8254 54.105C86.8168 53.8647 86.8558 53.6251 86.9401 53.4Z" fill="#309E3A"/>
<path d="M87.6401 53.6C87.5401 53.975 87.5151 54.3 87.6401 54.55C87.7651 54.8 87.9401 54.95 88.2151 55.05C88.4651 55.125 88.7151 55.1 88.9651 54.95C89.2151 54.825 89.3651 54.55 89.4901 54.15C89.6151 53.775 89.6151 53.475 89.4901 53.225C89.4407 53.1064 89.3658 53.0001 89.2708 52.9137C89.1757 52.8273 89.0628 52.7628 88.9401 52.725C88.8171 52.6825 88.6863 52.6672 88.5568 52.6802C88.4273 52.6931 88.3022 52.734 88.1901 52.8C87.9401 52.95 87.7651 53.2 87.6401 53.6Z" fill="white"/>
<path d="M93.7649 58.275L95.3649 55.175L96.6899 55.85C96.9397 55.9698 97.1678 56.1304 97.3649 56.325C97.4899 56.45 97.5649 56.6 97.5649 56.8C97.5649 57 97.5649 57.175 97.4649 57.35C97.3688 57.5748 97.1897 57.7539 96.9649 57.85C96.7149 57.9 96.4649 57.9 96.1899 57.8C96.2899 57.95 96.3399 58.1 96.3899 58.225C96.4399 58.375 96.4649 58.6 96.4899 58.925L96.5399 59.725L95.7899 59.35L95.6899 58.425C95.678 58.2153 95.653 58.0065 95.6149 57.8C95.5978 57.7065 95.5545 57.6197 95.4899 57.55L95.1899 57.375L95.0649 57.3L94.3899 58.6L93.7649 58.275Z" fill="#309E3A"/>
<path d="M95.3149 56.8L95.7899 57.05C96.0899 57.2 96.2899 57.3 96.3649 57.3C96.4399 57.3 96.5399 57.3 96.6149 57.25C96.6899 57.225 96.7399 57.15 96.7899 57.05C96.8399 56.95 96.8649 56.85 96.8399 56.75C96.8091 56.6505 96.7479 56.5631 96.6649 56.5C96.5186 56.4102 96.3685 56.3268 96.2149 56.25L95.7149 56L95.3149 56.8Z" fill="white"/>
<path d="M106.715 64.675C106.877 64.4179 107.089 64.1967 107.34 64.025C107.508 63.9173 107.695 63.8411 107.89 63.8C108.071 63.763 108.259 63.763 108.44 63.8C108.69 63.85 108.915 63.95 109.14 64.1C109.335 64.2212 109.502 64.3816 109.631 64.571C109.76 64.7604 109.848 64.9746 109.89 65.2C109.965 65.625 109.84 66.1 109.54 66.575C109.289 66.9881 108.884 67.2848 108.415 67.4C108.191 67.4483 107.96 67.4488 107.736 67.4014C107.512 67.3541 107.3 67.2598 107.115 67.125C106.92 67.0038 106.753 66.8434 106.624 66.654C106.495 66.4646 106.407 66.2504 106.365 66.025C106.29 65.575 106.415 65.125 106.715 64.675Z" fill="#309E3A"/>
<path d="M107.34 65.075C107.09 65.4 107.015 65.7 107.065 65.975C107.083 66.1016 107.129 66.2229 107.198 66.3306C107.266 66.4384 107.358 66.5302 107.465 66.6C107.715 66.775 107.965 66.825 108.215 66.75C108.465 66.675 108.715 66.5 108.94 66.15C109.165 65.8 109.265 65.5 109.215 65.25C109.19 65 109.04 64.775 108.815 64.6C108.59 64.425 108.315 64.4 108.065 64.475C107.815 64.525 107.565 64.725 107.315 65.075H107.34Z" fill="white"/>
<path d="M75.6399 51.125L76.2149 48.675L78.0149 49.1L77.9399 49.5L76.6149 49.2L76.4899 49.75L77.7149 50.025L77.6149 50.45L76.3899 50.15L76.2399 50.825L77.6149 51.15L77.5149 51.55L75.6399 51.125Z" fill="#309E3A"/>
</g>
<defs>
<clipPath id="clip0_312_23">
<rect width="160" height="120" fill="white" transform="translate(0.189941)"/>
</clipPath>
</defs>
</svg>
