<svg width="72" height="57" viewBox="0 0 72 57" fill="none" xmlns="http://www.w3.org/2000/svg">
<path d="M31.728 0.647999V29.032C31.728 31.6133 31.3333 33.9493 30.544 36.04C29.7547 38.1307 28.592 39.912 27.056 41.384C25.5413 42.856 23.6747 43.9867 21.456 44.776C19.2587 45.5653 16.7413 45.96 13.904 45.96C11.0453 45.96 8.57067 45.5973 6.48 44.872C4.41067 44.1253 2.416 43.1013 0.496 41.8L4.496 35.336C6.01067 36.3813 7.42933 37.1173 8.752 37.544C10.0747 37.9493 11.5787 38.152 13.264 38.152C15.5467 38.152 17.4453 37.4267 18.96 35.976C20.496 34.504 21.264 32.232 21.264 29.16V8.328H7.632V0.647999H31.728ZM39.575 56.904V48.968H71.575V56.904H39.575Z" fill="#41BF9A"/>
</svg>
