<svg width="161" height="120" viewBox="0 0 161 120" fill="none" xmlns="http://www.w3.org/2000/svg">
<g clip-path="url(#clip0_312_17)">
<path d="M0.189941 0H160.19V120H0.189941V0Z" fill="#012169"/>
<path d="M18.9399 0L79.9399 45.25L140.69 0H160.19V15.5L100.19 60.25L160.19 104.75V120H140.19L80.1899 75.25L20.4399 120H0.189941V105L59.9399 60.5L0.189941 16V0H18.9399Z" fill="white"/>
<path d="M106.19 70.25L160.19 110V120L92.4399 70.25H106.19ZM60.1899 75.25L61.6899 84L13.6899 120H0.189941L60.1899 75.25ZM160.19 0V0.75L97.9399 47.75L98.4399 36.75L147.69 0H160.19ZM0.189941 0L59.9399 44H44.9399L0.189941 10.5V0Z" fill="#C8102E"/>
<path d="M60.4399 0V120H100.44V0H60.4399ZM0.189941 40V80H160.19V40H0.189941Z" fill="white"/>
<path d="M0.189941 48.25V72.25H160.19V48.25H0.189941ZM68.4399 0V120H92.4399V0H68.4399Z" fill="#C8102E"/>
</g>
<defs>
<clipPath id="clip0_312_17">
<rect width="160" height="120" fill="white" transform="translate(0.189941)"/>
</clipPath>
</defs>
</svg>