<svg width="120" height="120" viewBox="0 0 120 120" fill="none" xmlns="http://www.w3.org/2000/svg">
<path d="M91.875 0H28.125C12.592 0 0 12.592 0 28.125V91.875C0 107.408 12.592 120 28.125 120H91.875C107.408 120 120 107.408 120 91.875V28.125C120 12.592 107.408 0 91.875 0Z" fill="#E14E1D"/>
<path d="M22.5 17.8125L26.5359 63.0905H78.4313L76.6898 82.5108L59.9808 87.0286L43.3031 82.5173L42.188 70.0477H27.1594L29.3086 94.0856L59.9775 102.604L90.6853 94.0856L94.8023 48.1195H40.23L38.8598 32.7867H96.1589L97.5 17.8125H22.5Z" fill="white"/>
<path d="M60 17.8125H22.5L26.5359 63.0905H60V48.1195H40.23L38.8598 32.7867H60V17.8125ZM60 87.022L59.9808 87.0286L43.3031 82.5173L42.188 70.0477H27.1594L29.3086 94.0856L59.9775 102.604L60.0005 102.597V87.022H60Z" fill="#EBEBEB"/>
</svg>
