<svg width="120" height="120" viewBox="0 0 120 120" fill="none" xmlns="http://www.w3.org/2000/svg">
<path d="M91.875 0H28.125C12.592 0 0 12.592 0 28.125V91.875C0 107.408 12.592 120 28.125 120H91.875C107.408 120 120 107.408 120 91.875V28.125C120 12.592 107.408 0 91.875 0Z" fill="#F0DB4F"/>
<path d="M31.5525 100.281L40.7353 94.7232C42.5072 97.8643 44.1187 100.522 47.9845 100.522C51.69 100.522 54.0262 99.0727 54.0262 93.4346V55.0918H65.3034V93.594C65.3034 105.274 58.4569 110.59 48.4678 110.59C39.4467 110.59 34.2103 105.918 31.552 100.28M71.4286 99.0722L80.6104 93.7562C83.0278 97.7035 86.1694 100.603 91.7269 100.603C96.3998 100.603 99.3792 98.2669 99.3792 95.0447C99.3792 91.1785 96.3183 89.8088 91.1629 87.5541L88.3444 86.3452C80.2083 82.8821 74.8111 78.5321 74.8111 69.3493C74.8111 60.8912 81.2554 54.4468 91.3247 54.4468C98.4937 54.4468 103.649 56.9443 107.354 63.4688L98.5739 69.1074C96.6403 65.6438 94.5469 64.2746 91.3247 64.2746C88.0219 64.2746 85.9275 66.369 85.9275 69.1074C85.9275 72.4904 88.0218 73.8601 92.8547 75.9549L95.6737 77.1629C105.259 81.2715 110.656 85.4593 110.656 94.8835C110.656 105.034 102.682 110.591 91.9687 110.591C81.4973 110.591 74.7309 105.597 71.4286 99.0722Z" fill="#323330"/>
</svg>
