<svg width="120" height="120" viewBox="0 0 120 120" fill="none" xmlns="http://www.w3.org/2000/svg">
<path d="M91.875 0H28.125C12.592 0 0 12.592 0 28.125V91.875C0 107.408 12.592 120 28.125 120H91.875C107.408 120 120 107.408 120 91.875V28.125C120 12.592 107.408 0 91.875 0Z" fill="#242938"/>
<path d="M56.1928 14.5856C58.4985 13.2661 61.5014 13.26 63.8048 14.5856C75.3932 21.1341 86.9854 27.6717 98.572 34.2239C100.752 35.4516 102.209 37.8769 102.187 40.388V79.7841C102.203 82.3992 100.602 84.8827 98.3025 86.0822C86.752 92.5945 75.2071 99.1144 63.6585 105.627C61.3059 106.972 58.2426 106.868 55.9626 105.412C52.4999 103.405 49.0312 101.407 45.5681 99.4022C44.8603 98.9803 44.0624 98.6447 43.5628 97.9584C44.0048 97.3631 44.7946 97.2891 45.4364 97.0289C46.8815 96.5691 48.2095 95.8312 49.537 95.1155C49.8731 94.8858 50.2828 94.9739 50.6048 95.1792C53.5659 96.877 56.5012 98.6245 59.4721 100.306C60.1059 100.672 60.7476 100.186 61.2895 99.8841C72.6239 93.4777 83.9723 87.0961 95.3053 80.6878C95.7253 80.4858 95.9573 80.04 95.9231 79.5802C95.931 66.5841 95.925 53.5861 95.9273 40.5895C95.9751 40.0683 95.6732 39.5883 95.2012 39.3745C83.691 32.8922 72.186 26.4005 60.6778 19.9167C60.4784 19.7795 60.2423 19.7059 60.0003 19.7055C59.7583 19.7051 59.5219 19.7779 59.3221 19.9144C47.8134 26.4005 36.3112 32.8988 24.8024 39.3802C24.3323 39.5944 24.0168 40.0664 24.0726 40.5895C24.0749 53.5861 24.0726 66.5841 24.0726 79.582C24.0526 79.8065 24.102 80.0318 24.2139 80.2274C24.3259 80.423 24.4951 80.5796 24.6989 80.6761C27.7696 82.4175 30.8446 84.1467 33.9178 85.8825C35.6493 86.8139 37.7746 87.368 39.682 86.6541C41.3653 86.0503 42.5451 84.3323 42.5132 82.5455C42.5292 69.6253 42.5053 56.7033 42.5249 43.7845C42.4828 43.2112 43.027 42.7373 43.5848 42.7917C45.0604 42.7814 46.5379 42.7716 48.0135 42.7955C48.6295 42.7814 49.0532 43.3992 48.9773 43.9767C48.9712 56.9789 48.9932 69.9811 48.9674 82.9828C48.9712 86.4483 47.5476 90.2189 44.3423 91.9144C40.394 93.9595 35.5134 93.5259 31.6124 91.5647C28.2356 89.8791 25.0124 87.8897 21.6956 86.0841C19.3903 84.8911 17.7965 82.3978 17.8129 79.7845V40.388C17.7885 37.8248 19.304 35.3555 21.5512 34.1456C33.0998 27.6286 44.6465 21.1059 56.1928 14.5856Z" fill="#81CD39"/>
<path d="M66.2681 41.8758C71.3049 41.5514 76.6969 41.6836 81.2292 44.1651C84.7388 46.0664 86.6841 50.0573 86.746 53.9559C86.648 54.4814 86.0981 54.7715 85.5961 54.7354C84.135 54.7336 82.673 54.7556 81.2119 54.7256C80.5917 54.7495 80.2317 54.1781 80.1539 53.6301C79.7339 51.7645 78.7163 49.9172 76.9608 49.0172C74.2655 47.6681 71.1408 47.7361 68.2017 47.7642C66.0563 47.8776 63.7491 48.0637 61.9313 49.3251C60.5358 50.2809 60.112 52.2103 60.6099 53.7642C61.0795 54.8798 62.3672 55.2398 63.4214 55.5717C69.4913 57.1594 75.9235 57.0009 81.8775 59.0901C84.3427 59.9418 86.7539 61.5979 87.5977 64.1789C88.7016 67.6383 88.2178 71.7726 85.7564 74.5495C83.7605 76.8347 80.8538 78.0787 77.9545 78.7542C74.0977 79.6144 70.095 79.6364 66.1781 79.2544C62.4952 78.8344 58.6622 77.8669 55.8192 75.3576C53.3878 73.2464 52.2005 69.9567 52.3181 66.7823C52.3463 66.2461 52.8802 65.872 53.3939 65.9161C54.8653 65.9044 56.3372 65.9001 57.8086 65.9184C58.3969 65.8762 58.8324 66.3844 58.8628 66.9384C59.1338 68.7154 59.8017 70.5811 61.3519 71.6344C64.3425 73.5642 68.0958 73.432 71.5205 73.4859C74.3578 73.3603 77.543 73.3223 79.8581 71.4468C81.0797 70.3772 81.4416 68.5875 81.1116 67.0481C80.7539 65.7483 79.3941 65.1426 78.2264 64.7465C72.2344 62.8514 65.73 63.539 59.7961 61.3954C57.3867 60.5442 55.057 58.9345 54.1317 56.4595C52.8403 52.9565 53.4319 48.6234 56.1511 45.9408C58.8024 43.2712 62.6292 42.2433 66.2681 41.8758Z" fill="#81CD39"/>
</svg>
