<svg width="120" height="120" viewBox="0 0 120 120" fill="none" xmlns="http://www.w3.org/2000/svg">
<path d="M91.875 0H28.125C12.592 0 0 12.592 0 28.125V91.875C0 107.408 12.592 120 28.125 120H91.875C107.408 120 120 107.408 120 91.875V28.125C120 12.592 107.408 0 91.875 0Z" fill="#001E36"/>
<path d="M27 83.4563V32.0063C27 31.6561 27.15 31.4564 27.5002 31.4564C28.35 31.4564 29.1502 31.4564 30.3 31.4063C31.5 31.3561 32.7502 31.3561 34.1002 31.3064C35.4502 31.2563 36.9 31.2563 38.4502 31.2061C39.9998 31.1564 41.4998 31.1564 42.9998 31.1564C47.1 31.1564 50.4998 31.6561 53.3002 32.7061C55.8101 33.5586 58.0988 34.9592 60 36.8063C61.6111 38.4228 62.856 40.3667 63.6502 42.5063C64.4002 44.6063 64.8 46.7564 64.8 49.0064C64.8 53.3063 63.8002 56.8561 61.8 59.6564C59.7998 62.4563 57 64.5563 53.7502 65.7563C50.3498 67.0064 46.5998 67.4564 42.5002 67.4564C41.3002 67.4564 40.5 67.4564 39.9998 67.4063C39.5002 67.3561 38.7998 67.3561 37.8502 67.3561V83.4061C37.8998 83.7563 37.65 84.0563 37.2998 84.1064H27.6C27.2002 84.1064 27 83.9063 27 83.4563ZM37.8998 41.1061V57.9061C38.6002 57.9563 39.2498 58.0064 39.8498 58.0064H42.5002C44.4502 58.0064 46.4002 57.7064 48.2498 57.1064C49.8502 56.6564 51.2498 55.7063 52.35 54.4561C53.4 53.2064 53.9002 51.5063 53.9002 49.3064C53.9471 47.7439 53.5481 46.2002 52.7498 44.8561C51.9 43.5563 50.7 42.5564 49.2502 42.0061C47.4 41.2561 45.3998 40.9561 43.35 41.0063C42.0502 41.0063 40.8998 41.0063 39.9502 41.0564C38.9498 41.0063 38.25 41.0564 37.8998 41.1061ZM96 54.8564C94.5 54.0563 92.9001 53.5064 91.2 53.1563C89.3498 52.7564 87.5002 52.5061 85.5998 52.5061C84.6 52.4564 83.55 52.6064 82.5998 52.8563C81.9502 53.0063 81.3998 53.3564 81.0502 53.8561C80.7998 54.2564 80.6498 54.7561 80.6498 55.2061C80.6498 55.6561 80.85 56.1061 81.15 56.5064C81.6 57.0563 82.2 57.5063 82.8502 57.8564C84.0094 58.4568 85.1937 59.0073 86.4 59.5064C89.1 60.4064 91.7002 61.6561 94.1002 63.1561C95.7502 64.2061 97.1002 65.6063 98.0498 67.3064C98.85 68.9063 99.2498 70.6561 99.2002 72.4561C99.2498 74.8064 98.55 77.1563 97.2502 79.1063C95.8555 81.1022 93.9094 82.6485 91.65 83.5561C89.1998 84.6061 86.1998 85.1564 82.5998 85.1564C80.3002 85.1564 78.0502 84.9563 75.8002 84.5063C74.0367 84.2017 72.3216 83.6637 70.7002 82.9064C70.35 82.7063 70.1002 82.3561 70.1498 81.9563V73.2563C70.1498 73.1063 70.2 72.9061 70.35 72.8063C70.5 72.7064 70.65 72.7561 70.8 72.8564C72.75 74.0063 74.7998 74.8064 77.0002 75.3061C78.9 75.8063 80.9002 76.0561 82.8998 76.0561C84.8002 76.0561 86.1502 75.8063 87.0501 75.3563C87.8498 75.0061 88.4002 74.1563 88.4002 73.2563C88.4002 72.5564 87.9998 71.9063 87.2002 71.2561C86.4 70.6064 84.75 69.8564 82.2998 68.9063C79.7866 68.0207 77.3998 66.8104 75.2002 65.3063C73.6334 64.1895 72.3352 62.7376 71.4 61.0561C70.5998 59.4563 70.2 57.7064 70.2502 55.9561C70.2502 53.8064 70.8502 51.7561 71.9498 49.9064C73.2 47.9063 75.0502 46.3064 77.1998 45.3061C79.5502 44.1061 82.5 43.5563 86.0498 43.5563C88.1002 43.5563 90.2002 43.7063 92.25 44.0063C93.75 44.2064 95.1998 44.6063 96.5499 45.1561C96.75 45.2063 96.9501 45.4064 97.05 45.6061C97.1002 45.8063 97.1498 46.0064 97.1498 46.2061V54.3563C97.1498 54.5564 97.05 54.7561 96.9 54.8564C96.45 54.9563 96.2002 54.9563 96 54.8564Z" fill="#31A8FF"/>
</svg>
