<svg width="120" height="120" viewBox="0 0 120 120" fill="none" xmlns="http://www.w3.org/2000/svg">
<g clip-path="url(#clip0_42_9)">
<path d="M91.875 0H28.125C12.592 0 0 12.592 0 28.125V91.875C0 107.408 12.592 120 28.125 120H91.875C107.408 120 120 107.408 120 91.875V28.125C120 12.592 107.408 0 91.875 0Z" fill="#242938"/>
<path d="M60.0004 68.8833C64.8304 68.8833 68.7454 64.9678 68.7454 60.1383C68.7454 55.3088 64.8304 51.3933 60.0004 51.3933C55.1708 51.3933 51.2554 55.3088 51.2554 60.1383C51.2554 64.9678 55.1708 68.8833 60.0004 68.8833Z" fill="#00D8FF"/>
<path d="M60.0009 42.3577C71.7422 42.3577 82.6495 44.0424 90.8737 46.8741C100.783 50.2852 106.875 55.4559 106.875 60.1383C106.875 65.0175 100.418 70.5108 89.7773 74.0363C81.7327 76.7016 71.1464 78.0928 60.0009 78.0928C48.5737 78.0928 37.7527 76.7869 29.617 74.0067C19.3242 70.4888 13.125 64.9247 13.125 60.1383C13.125 55.4939 18.9422 50.363 28.7119 46.957C36.9666 44.0789 48.143 42.3577 59.9991 42.3577H60.0009Z" stroke="#00D8FF" stroke-width="4.17703"/>
<path d="M44.5224 51.2991C50.3883 41.1281 57.2963 32.5209 63.8579 26.8116C71.7629 19.9317 79.2863 17.2373 83.3419 19.5759C87.5686 22.0134 89.1019 30.3516 86.8402 41.3306C85.1316 49.6308 81.0469 59.4961 75.4786 69.1514C69.7697 79.0505 63.233 87.772 56.761 93.4289C48.5715 100.588 40.6538 103.178 36.5077 100.787C32.4844 98.4689 30.946 90.8653 32.8763 80.7005C34.5071 72.1116 38.5997 61.5698 44.5205 51.2991H44.5224Z" stroke="#00D8FF" stroke-width="4.17703"/>
<path d="M44.537 69.1772C38.6546 59.0175 34.6496 48.7322 32.978 40.1963C30.9657 29.9114 32.3884 22.0481 36.4407 19.7025C40.6637 17.2575 48.6526 20.0935 57.0348 27.5363C63.3723 33.1631 69.8799 41.6274 75.4641 51.2733C81.1895 61.163 85.4804 71.1825 87.1496 79.6144C89.2618 90.285 87.5523 98.438 83.4099 100.836C79.3909 103.163 72.0357 100.699 64.193 93.9502C57.5668 88.2483 50.4774 79.4382 44.537 69.1772Z" stroke="#00D8FF" stroke-width="4.17703"/>
</g>
<defs>
<clipPath id="clip0_42_9">
<rect width="120" height="120" fill="white"/>
</clipPath>
</defs>
</svg>
