<svg width="120" height="120" viewBox="0 0 120 120" fill="none" xmlns="http://www.w3.org/2000/svg">
<path d="M91.875 0H28.125C12.592 0 0 12.592 0 28.125V91.875C0 107.408 12.592 120 28.125 120H91.875C107.408 120 120 107.408 120 91.875V28.125C120 12.592 107.408 0 91.875 0Z" fill="#007ACC"/>
<path d="M26.5364 60.398L26.4984 65.3123H42.1172V109.693H53.1656V65.3123H68.7844V60.4931C68.7844 57.8264 68.7276 55.598 68.6512 55.5408C68.594 55.4648 59.0892 55.4264 47.5654 55.4456L26.594 55.5028L26.5364 60.398ZM96.8283 55.3631C99.8756 56.1253 102.2 57.4777 104.333 59.6869C105.438 60.8681 107.076 63.0206 107.209 63.5348C107.247 63.6872 102.028 67.192 98.8664 69.1538C98.752 69.2302 98.2945 68.7347 97.7803 67.973C96.2376 65.7253 94.6186 64.7536 92.1422 64.5825C88.5042 64.3345 86.1614 66.2395 86.1806 69.4205C86.1806 70.3538 86.3137 70.9059 86.6948 71.6681C87.4945 73.3252 88.9804 74.3156 93.6473 76.3345C102.238 80.0302 105.914 82.4681 108.2 85.9345C110.752 89.8013 111.323 95.9728 109.59 100.563C107.685 105.554 102.961 108.944 96.3136 110.068C94.2567 110.43 89.3803 110.373 87.1711 109.973C82.3518 109.116 77.7806 106.735 74.9615 103.611C73.8567 102.392 71.7042 99.2109 71.8378 98.9822C71.8945 98.9063 72.39 98.6016 72.9422 98.2777C73.4756 97.973 75.495 96.8109 77.3995 95.7061L80.8472 93.7059L81.5709 94.7728C82.5806 96.3155 84.7898 98.43 86.1234 99.1345C89.9517 101.154 95.2092 100.868 97.7995 98.5444C98.9044 97.5347 99.3614 96.487 99.3614 94.9444C99.3614 93.5536 99.1898 92.9442 98.4661 91.8966C97.5328 90.5634 95.6283 89.4394 90.2184 87.0966C84.0281 84.4298 81.3614 82.7728 78.9234 80.1441C77.5139 78.6206 76.1803 76.1822 75.6281 74.1441C75.1711 72.4491 75.0567 68.2013 75.4186 66.487C76.6945 60.5063 81.209 56.3348 87.7233 55.0964C89.8378 54.6966 94.7517 54.8489 96.8283 55.3631Z" fill="white"/>
</svg>
